<svg width="25" height="25" viewBox="0 0 25 25" fill="none" xmlns="http://www.w3.org/2000/svg">
<path d="M23.9583 20.25H1.04167C0.466665 20.25 0 19.7834 0 19.2084C0 18.6334 0.466665 18.1667 1.04167 18.1667H23.9583C24.5333 18.1667 25 18.6334 25 19.2084C25 19.7834 24.5333 20.25 23.9583 20.25Z" fill="white"/>
<path d="M23.9583 13.1667H1.04167C0.466665 13.1667 0 12.7 0 12.125C0 11.55 0.466665 11.0833 1.04167 11.0833H23.9583C24.5333 11.0833 25 11.55 25 12.125C25 12.7 24.5333 13.1667 23.9583 13.1667Z" fill="white"/>
<path d="M23.9583 6.08333H1.04167C0.466665 6.08333 0 5.61667 0 5.04167C0 4.46666 0.466665 4 1.04167 4H23.9583C24.5333 4 25 4.46666 25 5.04167C25 5.61667 24.5333 6.08333 23.9583 6.08333Z" fill="white"/>
</svg>
