<?xml version="1.0" standalone="no"?>
<!DOCTYPE svg PUBLIC "-//W3C//DTD SVG 20010904//EN"
 "http://www.w3.org/TR/2001/REC-SVG-20010904/DTD/svg10.dtd">
<svg version="1.0" xmlns="http://www.w3.org/2000/svg"
 width="40pt" height="40pt" viewBox="0 0 860.000000 840.000000"
 preserveAspectRatio="xMidYMid meet">

<g transform="translate(0.000000,840.000000) scale(0.100000,-0.100000)"
fill="#fff" stroke="none">
<path d="M3845 7982 c6 -5 33 -17 60 -27 74 -26 162 -72 230 -119 l60 -41
-260 -6 c-476 -11 -827 -77 -1245 -231 -131 -49 -320 -132 -320 -141 0 -3 27
6 60 19 143 58 456 137 670 168 578 86 1233 0 1729 -225 1111 -504 1800 -1342
2005 -2437 69 -366 82 -671 37 -867 -85 -376 -277 -579 -578 -611 l-62 -6
-106 103 c-98 95 -215 227 -215 243 0 3 19 6 43 6 78 1 241 29 337 58 90 28
111 36 208 78 l37 17 -85 18 c-100 22 -221 78 -328 151 -151 104 -372 341
-423 453 -24 51 -24 65 1 65 75 0 274 120 458 277 l34 28 -79 2 c-144 2 -317
58 -435 141 -37 26 -164 114 -283 195 -118 82 -215 152 -215 156 0 4 10 16 22
27 26 23 198 253 198 265 0 11 5 12 -119 -8 -160 -26 -502 -24 -591 3 -59 18
-65 22 -62 44 2 14 6 44 9 68 3 23 3 42 1 42 -3 0 -20 -7 -38 -16 -38 -19
-134 -24 -151 -7 -14 14 1 178 32 366 24 150 24 150 -2 142 -19 -6 -19 -4 6
45 15 29 24 54 21 57 -12 12 -93 -12 -174 -51 -123 -61 -235 -147 -403 -313
l-146 -143 -104 48 c-106 50 -198 84 -324 121 -86 25 -217 53 -222 47 -2 -2 8
-21 22 -42 51 -75 60 -130 60 -357 0 -140 -4 -210 -11 -215 -6 -4 -14 -29 -17
-55 -17 -121 -31 -148 -125 -229 -159 -139 -356 -348 -385 -408 -17 -36 -37
-113 -57 -225 -68 -377 -80 -427 -117 -487 -90 -151 -384 -407 -821 -717 -198
-141 -247 -207 -223 -298 15 -54 51 -97 100 -116 21 -9 67 -36 102 -60 88 -61
166 -99 281 -136 118 -37 248 -61 335 -61 65 0 65 0 42 18 -13 11 -20 25 -17
34 6 15 68 28 130 28 25 0 28 3 22 24 -5 21 -1 25 33 36 65 21 165 79 233 136
36 30 125 105 198 168 169 144 168 143 241 128 31 -7 73 -12 93 -12 l36 0 -14
38 c-7 20 -13 53 -14 72 0 34 3 37 103 97 108 65 262 143 284 143 19 0 16 -27
-11 -106 -48 -141 -138 -297 -219 -383 l-52 -53 59 7 c32 4 81 13 108 22 28 8
52 12 55 9 7 -7 -51 -85 -153 -206 -150 -179 -340 -336 -481 -396 l-58 -25
145 5 c170 5 301 34 405 89 35 19 66 32 69 30 13 -13 -91 -215 -168 -328 -33
-49 -102 -132 -153 -183 -51 -50 -91 -92 -89 -92 4 0 297 87 364 108 34 11 62
16 62 11 0 -18 -76 -92 -159 -154 -140 -105 -363 -204 -561 -249 -98 -23 -304
-46 -403 -46 -253 0 -533 59 -777 163 -155 67 -207 99 -314 199 -80 75 -120
123 -187 224 -210 317 -395 677 -514 1002 -21 57 -39 101 -42 99 -12 -12 106
-436 151 -541 9 -22 14 -41 12 -43 -8 -8 -182 357 -219 457 -81 219 -143 458
-177 689 l-19 126 5 -120 c14 -328 77 -658 189 -984 401 -1166 1384 -2053
2601 -2347 309 -74 522 -98 874 -98 405 0 610 27 1040 140 328 85 555 167 807
289 441 214 794 473 1066 783 127 145 180 198 287 289 91 76 294 279 380 378
218 251 428 598 550 905 42 109 116 339 134 422 11 51 -2 29 -24 -40 -29 -88
-119 -277 -171 -361 -110 -175 -284 -358 -442 -465 -48 -33 -89 -57 -92 -54
-3 3 14 47 38 99 359 772 402 1691 127 2664 -53 186 -107 344 -123 360 -7 7
-8 4 -4 -7 16 -45 18 -167 4 -243 -16 -84 -53 -195 -66 -195 -4 0 -32 57 -61
128 -370 883 -1012 1546 -1878 1936 -453 205 -1030 347 -1507 371 -60 3 -135
8 -165 11 -31 3 -51 1 -45 -4z m510 -1679 c-7 -27 -15 -66 -19 -88 l-8 -40 34
33 c41 39 51 40 38 6 -19 -48 -40 -209 -40 -299 0 -49 8 -135 16 -190 22 -135
28 -264 16 -319 -5 -25 -9 -46 -7 -46 1 0 26 13 56 30 30 16 57 30 61 30 4 0
-1 -15 -12 -33 -20 -33 -75 -225 -67 -233 2 -3 14 22 25 53 29 79 74 147 138
209 l54 52 -32 11 c-17 6 -56 14 -85 18 l-53 6 0 71 c0 39 -3 89 -7 110 -6 36
-5 39 13 31 97 -42 404 -85 611 -85 l103 0 0 -31 c0 -40 -48 -130 -111 -208
-27 -34 -49 -63 -49 -66 0 -3 27 -5 60 -5 119 0 252 -70 409 -214 87 -81 186
-149 329 -227 34 -18 62 -37 62 -40 0 -11 -98 -47 -184 -69 -47 -12 -112 -20
-159 -20 l-79 0 6 -32 c24 -121 192 -366 454 -661 57 -65 101 -121 98 -124 -4
-4 -57 -9 -119 -11 -101 -3 -224 9 -341 35 l-29 6 24 -44 c43 -78 371 -400
579 -567 14 -11 23 -23 20 -26 -16 -15 -198 -57 -280 -64 l-95 -8 112 -27
c140 -34 331 -67 388 -67 75 0 59 -18 -22 -26 -81 -7 -296 0 -325 11 -13 5 -9
-9 18 -62 27 -53 36 -83 39 -138 l4 -70 -13 52 c-25 95 -26 95 -62 -25 -40
-131 -83 -222 -162 -341 -37 -56 -57 -79 -62 -70 -4 8 -20 75 -36 149 l-29
135 -8 -100 c-4 -55 -16 -136 -27 -180 -25 -103 -97 -245 -164 -327 -57 -68
-156 -158 -175 -158 -8 0 -11 37 -11 123 0 211 -32 389 -88 491 -29 53 -52 70
-52 39 0 -40 -43 -182 -82 -270 -110 -253 -355 -513 -617 -657 -46 -25 -85
-46 -87 -46 -2 0 16 28 40 63 40 56 106 177 106 193 0 3 -30 -20 -67 -53 -328
-285 -597 -409 -1013 -464 -148 -19 -494 -14 -695 10 -333 40 -379 51 -514
122 -66 35 -119 65 -117 67 2 2 53 -2 112 -9 232 -25 508 18 764 117 249 97
405 197 750 479 74 61 159 126 188 144 65 41 62 51 -5 18 -70 -36 -239 -93
-327 -111 -68 -15 -146 -21 -146 -13 0 2 20 39 45 83 105 181 219 434 203 449
-3 3 -18 -2 -35 -10 -34 -17 -164 -50 -236 -60 l-49 -6 94 113 c123 149 219
271 304 388 118 161 125 178 69 154 -34 -14 -145 -20 -145 -7 0 3 22 40 48 82
75 118 114 191 138 256 l22 60 63 9 c77 10 184 -4 254 -34 26 -11 50 -18 53
-15 4 3 6 36 6 74 -1 47 -7 78 -20 99 -10 17 -15 34 -11 38 4 4 30 11 59 15
87 14 211 -13 354 -76 32 -14 58 -24 60 -23 4 5 -117 241 -148 287 -17 25 -46
62 -65 82 l-34 36 38 16 c86 37 169 29 277 -25 67 -34 67 -34 10 69 -19 35
-60 90 -90 123 -45 48 -54 64 -49 82 10 31 25 49 50 58 36 14 -102 72 -183 76
l-67 4 45 -13 c49 -15 106 -42 114 -55 2 -4 -9 -29 -25 -56 -49 -79 -52 -93
-21 -100 36 -8 69 -34 56 -45 -5 -5 -34 -16 -64 -26 -66 -20 -152 -70 -168
-96 -11 -16 -7 -25 26 -62 52 -57 102 -127 102 -144 0 -10 -25 -13 -112 -13
-106 0 -193 -14 -262 -40 l-30 -11 36 -29 c37 -31 68 -84 68 -117 0 -19 -7
-19 -132 -15 -279 9 -513 -71 -826 -281 -159 -107 -229 -162 -440 -341 -161
-139 -240 -193 -331 -227 -197 -74 -483 -74 -644 0 -66 30 -187 115 -187 131
0 5 11 26 25 46 33 49 48 108 43 171 -4 51 -4 53 31 76 20 13 101 73 181 132
432 322 696 597 715 744 28 213 67 401 109 519 38 106 360 427 546 544 56 36
187 108 195 108 2 0 6 -44 7 -97 2 -67 6 -92 12 -78 76 173 104 231 156 319
147 247 384 511 605 675 61 44 113 81 116 81 3 0 1 -21 -6 -47z m-970 -221
c92 -32 152 -63 253 -128 l83 -54 -63 -78 c-35 -42 -92 -114 -126 -160 -46
-59 -76 -89 -110 -107 -26 -13 -67 -38 -92 -54 l-45 -31 -6 228 c-4 125 -10
271 -14 325 l-8 98 29 -7 c16 -4 61 -18 99 -32z m-157 -2687 c26 -40 15 -45
-43 -21 -39 17 -44 30 -17 45 27 16 36 13 60 -24z"/>
<path d="M4139 5721 c-161 -81 -286 -205 -363 -359 -15 -30 -26 -56 -23 -58 2
-2 19 17 37 44 52 72 159 180 221 222 l56 39 18 -57 c20 -62 17 -64 43 33 6
22 27 66 47 99 19 32 35 60 35 62 0 9 -18 2 -71 -25z"/>
<path d="M3253 4750 c-127 -26 -225 -129 -380 -400 -35 -62 -54 -86 -71 -88
-13 -2 -25 3 -28 12 -9 24 -24 19 -24 -7 0 -34 19 -47 66 -47 24 0 54 -4 68
-10 23 -8 33 -1 128 94 57 57 129 120 160 140 31 20 64 46 72 58 22 31 20 101
-4 148 l-20 40 32 20 c18 11 48 23 65 26 18 3 30 10 27 15 -6 10 -33 10 -91
-1z"/>
<path d="M4208 3515 c-12 -132 13 -310 64 -455 31 -89 48 -118 48 -84 0 50 22
204 35 251 14 49 47 85 59 65 3 -5 23 -63 45 -130 50 -151 116 -290 174 -364
43 -56 94 -104 102 -97 2 2 -3 31 -11 64 -7 33 -17 97 -20 143 -4 46 -11 79
-15 75 -5 -5 -14 -32 -22 -62 l-14 -54 -75 154 c-87 176 -122 274 -122 342 0
26 -3 47 -7 47 -3 0 -26 -18 -51 -39 -29 -26 -55 -62 -73 -103 l-28 -63 -19
44 c-32 76 -48 146 -56 242 l-8 94 -6 -70z"/>
</g>
</svg>
